<svg width="257" height="49" viewBox="0 0 257 49" fill="none" xmlns="http://www.w3.org/2000/svg">
<path d="M77.248 35.9844H72.8535L64.2988 21.9512V35.9844H59.9043V14.6563H64.2988L72.8682 28.7188V14.6563H77.248V35.9844ZM88.1025 36.2774C85.7783 36.2774 83.8838 35.5645 82.4189 34.1387C80.9639 32.7129 80.2363 30.8135 80.2363 28.4405V28.0303C80.2363 26.4385 80.5439 25.0176 81.1592 23.7676C81.7744 22.5079 82.6436 21.5411 83.7666 20.8672C84.8994 20.1836 86.1885 19.8418 87.6338 19.8418C89.8018 19.8418 91.5059 20.5254 92.7461 21.8926C93.9961 23.2598 94.6211 25.1983 94.6211 27.7081V29.4366H84.5283C84.665 30.4717 85.0752 31.3018 85.7588 31.9268C86.4521 32.5518 87.3262 32.8643 88.3809 32.8643C90.0117 32.8643 91.2861 32.2735 92.2041 31.0918L94.2842 33.4209C93.6494 34.3194 92.79 35.0225 91.7061 35.5303C90.6221 36.0284 89.4209 36.2774 88.1025 36.2774ZM87.6191 23.2696C86.7793 23.2696 86.0957 23.5528 85.5684 24.1192C85.0508 24.6856 84.7188 25.4961 84.5723 26.5508H90.4609V26.2139C90.4414 25.2764 90.1875 24.5538 89.6992 24.0459C89.2109 23.5284 88.5176 23.2696 87.6191 23.2696ZM110.822 30.2276L112.902 20.1348H116.989L112.946 35.9844H109.401L106.398 26.0088L103.396 35.9844H99.8652L95.8223 20.1348H99.9092L101.975 30.2129L104.875 20.1348H107.937L110.822 30.2276ZM127.683 31.6045C127.683 31.087 127.424 30.6817 126.906 30.3887C126.398 30.086 125.578 29.8174 124.445 29.5831C120.676 28.792 118.791 27.1905 118.791 24.7784C118.791 23.3721 119.372 22.2002 120.534 21.2627C121.706 20.3155 123.234 19.8418 125.119 19.8418C127.131 19.8418 128.737 20.3155 129.938 21.2627C131.149 22.21 131.755 23.4405 131.755 24.9541H127.521C127.521 24.3487 127.326 23.8506 126.936 23.46C126.545 23.0596 125.935 22.8594 125.104 22.8594C124.392 22.8594 123.84 23.0206 123.449 23.3428C123.059 23.6651 122.863 24.0752 122.863 24.5733C122.863 25.042 123.083 25.4229 123.522 25.7159C123.972 25.9991 124.724 26.2481 125.778 26.4629C126.833 26.668 127.722 26.9024 128.444 27.1661C130.681 27.9864 131.799 29.4073 131.799 31.4288C131.799 32.8741 131.179 34.0459 129.938 34.9444C128.698 35.8331 127.097 36.2774 125.134 36.2774C123.806 36.2774 122.624 36.043 121.589 35.5743C120.563 35.0957 119.758 34.4463 119.172 33.626C118.586 32.7959 118.293 31.9024 118.293 30.9454H122.307C122.346 31.6973 122.624 32.2735 123.142 32.6739C123.659 33.0743 124.353 33.2745 125.222 33.2745C126.032 33.2745 126.643 33.1231 127.053 32.8204C127.473 32.5079 127.683 32.1026 127.683 31.6045Z" fill="white"/>
<path d="M134.816 35.9844V14.6563H141.379C143.254 14.6563 144.929 15.0811 146.403 15.9307C147.888 16.7706 149.045 17.9717 149.875 19.5342C150.705 21.087 151.12 22.8545 151.12 24.837V25.8184C151.12 27.8008 150.71 29.5635 149.89 31.1065C149.079 32.6495 147.932 33.8457 146.447 34.6954C144.963 35.545 143.288 35.9747 141.423 35.9844H134.816ZM139.211 18.2159V32.4541H141.335C143.054 32.4541 144.367 31.8926 145.275 30.7696C146.184 29.6465 146.647 28.0401 146.667 25.9502V24.8223C146.667 22.6543 146.218 21.0137 145.319 19.9004C144.421 18.7774 143.107 18.2159 141.379 18.2159H139.211ZM161.345 36.2774C159.021 36.2774 157.126 35.5645 155.661 34.1387C154.206 32.7129 153.479 30.8135 153.479 28.4405V28.0303C153.479 26.4385 153.786 25.0176 154.401 23.7676C155.017 22.5079 155.886 21.5411 157.009 20.8672C158.142 20.1836 159.431 19.8418 160.876 19.8418C163.044 19.8418 164.748 20.5254 165.988 21.8926C167.238 23.2598 167.863 25.1983 167.863 27.7081V29.4366H157.771C157.907 30.4717 158.317 31.3018 159.001 31.9268C159.694 32.5518 160.568 32.8643 161.623 32.8643C163.254 32.8643 164.528 32.2735 165.446 31.0918L167.526 33.4209C166.892 34.3194 166.032 35.0225 164.948 35.5303C163.864 36.0284 162.663 36.2774 161.345 36.2774ZM160.861 23.2696C160.021 23.2696 159.338 23.5528 158.811 24.1192C158.293 24.6856 157.961 25.4961 157.814 26.5508H163.703V26.2139C163.684 25.2764 163.43 24.5538 162.941 24.0459C162.453 23.5284 161.76 23.2696 160.861 23.2696ZM184.548 28.2061C184.548 30.6475 183.991 32.6055 182.878 34.0801C181.774 35.545 180.28 36.2774 178.396 36.2774C176.794 36.2774 175.5 35.7207 174.514 34.6075V42.0782H170.28V20.1348H174.206L174.353 21.6875C175.378 20.4571 176.716 19.8418 178.366 19.8418C180.319 19.8418 181.838 20.5645 182.922 22.0098C184.006 23.4551 184.548 25.4473 184.548 27.9864V28.2061ZM180.314 27.8985C180.314 26.4239 180.051 25.2862 179.523 24.4854C179.006 23.6846 178.249 23.2842 177.253 23.2842C175.925 23.2842 175.012 23.792 174.514 24.8077V31.2969C175.031 32.3418 175.954 32.8643 177.282 32.8643C179.304 32.8643 180.314 31.209 180.314 27.8985ZM186.525 27.9131C186.525 26.3409 186.828 24.9395 187.434 23.709C188.039 22.4786 188.908 21.5264 190.041 20.8526C191.184 20.1788 192.507 19.8418 194.011 19.8418C196.149 19.8418 197.893 20.4961 199.24 21.8047C200.598 23.1133 201.354 24.8907 201.511 27.1368L201.54 28.2207C201.54 30.6524 200.861 32.6055 199.504 34.0801C198.146 35.545 196.325 36.2774 194.04 36.2774C191.755 36.2774 189.929 35.545 188.562 34.0801C187.204 32.6153 186.525 30.6231 186.525 28.1036V27.9131ZM190.759 28.2207C190.759 29.7247 191.042 30.877 191.608 31.6778C192.175 32.4688 192.985 32.8643 194.04 32.8643C195.065 32.8643 195.866 32.4737 196.442 31.6924C197.019 30.9014 197.307 29.6416 197.307 27.9131C197.307 26.4385 197.019 25.2959 196.442 24.4854C195.866 23.6749 195.056 23.2696 194.011 23.2696C192.976 23.2696 192.175 23.6749 191.608 24.4854C191.042 25.2862 190.759 26.5313 190.759 28.2207ZM213.054 24.1045C212.478 24.0264 211.97 23.9874 211.53 23.9874C209.929 23.9874 208.879 24.5293 208.381 25.6133V35.9844H204.147V20.1348H208.146L208.264 22.0245C209.113 20.5694 210.29 19.8418 211.794 19.8418C212.263 19.8418 212.702 19.9053 213.112 20.0323L213.054 24.1045ZM220.905 16.2383V20.1348H223.615V23.2403H220.905V31.1504C220.905 31.7364 221.018 32.1563 221.242 32.4102C221.467 32.6641 221.896 32.7911 222.531 32.7911C223 32.7911 223.415 32.7569 223.776 32.6885V35.8965C222.946 36.1504 222.092 36.2774 221.213 36.2774C218.244 36.2774 216.73 34.7784 216.672 31.7803V23.2403H214.357V20.1348H216.672V16.2383H220.905ZM233.269 36.2774C230.944 36.2774 229.05 35.5645 227.585 34.1387C226.13 32.7129 225.402 30.8135 225.402 28.4405V28.0303C225.402 26.4385 225.71 25.0176 226.325 23.7676C226.94 22.5079 227.81 21.5411 228.933 20.8672C230.065 20.1836 231.354 19.8418 232.8 19.8418C234.968 19.8418 236.672 20.5254 237.912 21.8926C239.162 23.2598 239.787 25.1983 239.787 27.7081V29.4366H229.694C229.831 30.4717 230.241 31.3018 230.925 31.9268C231.618 32.5518 232.492 32.8643 233.547 32.8643C235.178 32.8643 236.452 32.2735 237.37 31.0918L239.45 33.4209C238.815 34.3194 237.956 35.0225 236.872 35.5303C235.788 36.0284 234.587 36.2774 233.269 36.2774ZM232.785 23.2696C231.945 23.2696 231.262 23.5528 230.734 24.1192C230.217 24.6856 229.885 25.4961 229.738 26.5508H235.627V26.2139C235.607 25.2764 235.354 24.5538 234.865 24.0459C234.377 23.5284 233.684 23.2696 232.785 23.2696ZM250.788 31.6045C250.788 31.087 250.529 30.6817 250.012 30.3887C249.504 30.086 248.684 29.8174 247.551 29.5831C243.781 28.792 241.896 27.1905 241.896 24.7784C241.896 23.3721 242.478 22.2002 243.64 21.2627C244.812 20.3155 246.34 19.8418 248.225 19.8418C250.236 19.8418 251.843 20.3155 253.044 21.2627C254.255 22.21 254.86 23.4405 254.86 24.9541H250.627C250.627 24.3487 250.432 23.8506 250.041 23.46C249.65 23.0596 249.04 22.8594 248.21 22.8594C247.497 22.8594 246.945 23.0206 246.555 23.3428C246.164 23.6651 245.969 24.0752 245.969 24.5733C245.969 25.042 246.188 25.4229 246.628 25.7159C247.077 25.9991 247.829 26.2481 248.884 26.4629C249.938 26.668 250.827 26.9024 251.55 27.1661C253.786 27.9864 254.904 29.4073 254.904 31.4288C254.904 32.8741 254.284 34.0459 253.044 34.9444C251.804 35.8331 250.202 36.2774 248.239 36.2774C246.911 36.2774 245.729 36.043 244.694 35.5743C243.669 35.0957 242.863 34.4463 242.277 33.626C241.691 32.7959 241.398 31.9024 241.398 30.9454H245.412C245.451 31.6973 245.729 32.2735 246.247 32.6739C246.765 33.0743 247.458 33.2745 248.327 33.2745C249.138 33.2745 249.748 33.1231 250.158 32.8204C250.578 32.5079 250.788 32.1026 250.788 31.6045Z" fill="#B94141"/>
<path d="M30.625 18.387H18.375V30.6131H30.625V18.387Z" fill="white"/>
<path d="M12.25 0H0V12.2261H12.25V0Z" fill="white"/>
<path d="M30.625 36.7739H18.375V49H30.625V36.7739Z" fill="#B94141"/>
<path d="M12.25 18.387H0V30.6131H12.25V18.387Z" fill="#B94141"/>
<path d="M12.25 36.7739H0V49H12.25V36.7739Z" fill="white"/>
<path d="M49 0H36.75V12.2261H49V0Z" fill="white"/>
<path d="M30.625 0H18.375V12.2261H30.625V0Z" fill="#B94141"/>
<path d="M49 18.387H36.75V30.6131H49V18.387Z" fill="#B94141"/>
<path d="M49 36.7739H36.75V49H49V36.7739Z" fill="white"/>
</svg>
