<svg width="257" height="49" viewBox="0 0 257 49" fill="none" xmlns="http://www.w3.org/2000/svg">
<path d="M77.248 35H72.8535L64.2988 20.9668V35H59.9043V13.6719H64.2988L72.8682 27.7344V13.6719H77.248V35ZM88.1025 35.293C85.7783 35.293 83.8838 34.5801 82.4189 33.1543C80.9639 31.7285 80.2363 29.8291 80.2363 27.4561V27.0459C80.2363 25.4541 80.5439 24.0332 81.1592 22.7832C81.7744 21.5234 82.6436 20.5566 83.7666 19.8828C84.8994 19.1992 86.1885 18.8574 87.6338 18.8574C89.8018 18.8574 91.5059 19.541 92.7461 20.9082C93.9961 22.2754 94.6211 24.2139 94.6211 26.7236V28.4521H84.5283C84.665 29.4873 85.0752 30.3174 85.7588 30.9424C86.4521 31.5674 87.3262 31.8799 88.3809 31.8799C90.0117 31.8799 91.2861 31.2891 92.2041 30.1074L94.2842 32.4365C93.6494 33.335 92.79 34.0381 91.7061 34.5459C90.6221 35.0439 89.4209 35.293 88.1025 35.293ZM87.6191 22.2852C86.7793 22.2852 86.0957 22.5684 85.5684 23.1348C85.0508 23.7012 84.7188 24.5117 84.5723 25.5664H90.4609V25.2295C90.4414 24.292 90.1875 23.5693 89.6992 23.0615C89.2109 22.5439 88.5176 22.2852 87.6191 22.2852ZM110.822 29.2432L112.902 19.1504H116.989L112.946 35H109.401L106.398 25.0244L103.396 35H99.8652L95.8223 19.1504H99.9092L101.975 29.2285L104.875 19.1504H107.937L110.822 29.2432ZM127.683 30.6201C127.683 30.1025 127.424 29.6973 126.906 29.4043C126.398 29.1016 125.578 28.833 124.445 28.5986C120.676 27.8076 118.791 26.2061 118.791 23.7939C118.791 22.3877 119.372 21.2158 120.534 20.2783C121.706 19.3311 123.234 18.8574 125.119 18.8574C127.131 18.8574 128.737 19.3311 129.938 20.2783C131.149 21.2256 131.755 22.4561 131.755 23.9697H127.521C127.521 23.3643 127.326 22.8662 126.936 22.4756C126.545 22.0752 125.935 21.875 125.104 21.875C124.392 21.875 123.84 22.0361 123.449 22.3584C123.059 22.6807 122.863 23.0908 122.863 23.5889C122.863 24.0576 123.083 24.4385 123.522 24.7314C123.972 25.0146 124.724 25.2637 125.778 25.4785C126.833 25.6836 127.722 25.918 128.444 26.1816C130.681 27.002 131.799 28.4229 131.799 30.4443C131.799 31.8896 131.179 33.0615 129.938 33.96C128.698 34.8486 127.097 35.293 125.134 35.293C123.806 35.293 122.624 35.0586 121.589 34.5898C120.563 34.1113 119.758 33.4619 119.172 32.6416C118.586 31.8115 118.293 30.918 118.293 29.9609H122.307C122.346 30.7129 122.624 31.2891 123.142 31.6895C123.659 32.0898 124.353 32.29 125.222 32.29C126.032 32.29 126.643 32.1387 127.053 31.8359C127.473 31.5234 127.683 31.1182 127.683 30.6201Z" fill="black"/>
<path d="M134.816 35V13.6719H141.379C143.254 13.6719 144.929 14.0967 146.403 14.9463C147.888 15.7861 149.045 16.9873 149.875 18.5498C150.705 20.1025 151.12 21.8701 151.12 23.8525V24.834C151.12 26.8164 150.71 28.5791 149.89 30.1221C149.079 31.665 147.932 32.8613 146.447 33.7109C144.963 34.5605 143.288 34.9902 141.423 35H134.816ZM139.211 17.2314V31.4697H141.335C143.054 31.4697 144.367 30.9082 145.275 29.7852C146.184 28.6621 146.647 27.0557 146.667 24.9658V23.8379C146.667 21.6699 146.218 20.0293 145.319 18.916C144.421 17.793 143.107 17.2314 141.379 17.2314H139.211ZM161.345 35.293C159.021 35.293 157.126 34.5801 155.661 33.1543C154.206 31.7285 153.479 29.8291 153.479 27.4561V27.0459C153.479 25.4541 153.786 24.0332 154.401 22.7832C155.017 21.5234 155.886 20.5566 157.009 19.8828C158.142 19.1992 159.431 18.8574 160.876 18.8574C163.044 18.8574 164.748 19.541 165.988 20.9082C167.238 22.2754 167.863 24.2139 167.863 26.7236V28.4521H157.771C157.907 29.4873 158.317 30.3174 159.001 30.9424C159.694 31.5674 160.568 31.8799 161.623 31.8799C163.254 31.8799 164.528 31.2891 165.446 30.1074L167.526 32.4365C166.892 33.335 166.032 34.0381 164.948 34.5459C163.864 35.0439 162.663 35.293 161.345 35.293ZM160.861 22.2852C160.021 22.2852 159.338 22.5684 158.811 23.1348C158.293 23.7012 157.961 24.5117 157.814 25.5664H163.703V25.2295C163.684 24.292 163.43 23.5693 162.941 23.0615C162.453 22.5439 161.76 22.2852 160.861 22.2852ZM184.548 27.2217C184.548 29.6631 183.991 31.6211 182.878 33.0957C181.774 34.5605 180.28 35.293 178.396 35.293C176.794 35.293 175.5 34.7363 174.514 33.623V41.0938H170.28V19.1504H174.206L174.353 20.7031C175.378 19.4727 176.716 18.8574 178.366 18.8574C180.319 18.8574 181.838 19.5801 182.922 21.0254C184.006 22.4707 184.548 24.4629 184.548 27.002V27.2217ZM180.314 26.9141C180.314 25.4395 180.051 24.3018 179.523 23.501C179.006 22.7002 178.249 22.2998 177.253 22.2998C175.925 22.2998 175.012 22.8076 174.514 23.8232V30.3125C175.031 31.3574 175.954 31.8799 177.282 31.8799C179.304 31.8799 180.314 30.2246 180.314 26.9141ZM186.525 26.9287C186.525 25.3564 186.828 23.9551 187.434 22.7246C188.039 21.4941 188.908 20.542 190.041 19.8682C191.184 19.1943 192.507 18.8574 194.011 18.8574C196.149 18.8574 197.893 19.5117 199.24 20.8203C200.598 22.1289 201.354 23.9062 201.511 26.1523L201.54 27.2363C201.54 29.668 200.861 31.6211 199.504 33.0957C198.146 34.5605 196.325 35.293 194.04 35.293C191.755 35.293 189.929 34.5605 188.562 33.0957C187.204 31.6309 186.525 29.6387 186.525 27.1191V26.9287ZM190.759 27.2363C190.759 28.7402 191.042 29.8926 191.608 30.6934C192.175 31.4844 192.985 31.8799 194.04 31.8799C195.065 31.8799 195.866 31.4893 196.442 30.708C197.019 29.917 197.307 28.6572 197.307 26.9287C197.307 25.4541 197.019 24.3115 196.442 23.501C195.866 22.6904 195.056 22.2852 194.011 22.2852C192.976 22.2852 192.175 22.6904 191.608 23.501C191.042 24.3018 190.759 25.5469 190.759 27.2363ZM213.054 23.1201C212.478 23.042 211.97 23.0029 211.53 23.0029C209.929 23.0029 208.879 23.5449 208.381 24.6289V35H204.147V19.1504H208.146L208.264 21.04C209.113 19.585 210.29 18.8574 211.794 18.8574C212.263 18.8574 212.702 18.9209 213.112 19.0479L213.054 23.1201ZM220.905 15.2539V19.1504H223.615V22.2559H220.905V30.166C220.905 30.752 221.018 31.1719 221.242 31.4258C221.467 31.6797 221.896 31.8066 222.531 31.8066C223 31.8066 223.415 31.7725 223.776 31.7041V34.9121C222.946 35.166 222.092 35.293 221.213 35.293C218.244 35.293 216.73 33.7939 216.672 30.7959V22.2559H214.357V19.1504H216.672V15.2539H220.905ZM233.269 35.293C230.944 35.293 229.05 34.5801 227.585 33.1543C226.13 31.7285 225.402 29.8291 225.402 27.4561V27.0459C225.402 25.4541 225.71 24.0332 226.325 22.7832C226.94 21.5234 227.81 20.5566 228.933 19.8828C230.065 19.1992 231.354 18.8574 232.8 18.8574C234.968 18.8574 236.672 19.541 237.912 20.9082C239.162 22.2754 239.787 24.2139 239.787 26.7236V28.4521H229.694C229.831 29.4873 230.241 30.3174 230.925 30.9424C231.618 31.5674 232.492 31.8799 233.547 31.8799C235.178 31.8799 236.452 31.2891 237.37 30.1074L239.45 32.4365C238.815 33.335 237.956 34.0381 236.872 34.5459C235.788 35.0439 234.587 35.293 233.269 35.293ZM232.785 22.2852C231.945 22.2852 231.262 22.5684 230.734 23.1348C230.217 23.7012 229.885 24.5117 229.738 25.5664H235.627V25.2295C235.607 24.292 235.354 23.5693 234.865 23.0615C234.377 22.5439 233.684 22.2852 232.785 22.2852ZM250.788 30.6201C250.788 30.1025 250.529 29.6973 250.012 29.4043C249.504 29.1016 248.684 28.833 247.551 28.5986C243.781 27.8076 241.896 26.2061 241.896 23.7939C241.896 22.3877 242.478 21.2158 243.64 20.2783C244.812 19.3311 246.34 18.8574 248.225 18.8574C250.236 18.8574 251.843 19.3311 253.044 20.2783C254.255 21.2256 254.86 22.4561 254.86 23.9697H250.627C250.627 23.3643 250.432 22.8662 250.041 22.4756C249.65 22.0752 249.04 21.875 248.21 21.875C247.497 21.875 246.945 22.0361 246.555 22.3584C246.164 22.6807 245.969 23.0908 245.969 23.5889C245.969 24.0576 246.188 24.4385 246.628 24.7314C247.077 25.0146 247.829 25.2637 248.884 25.4785C249.938 25.6836 250.827 25.918 251.55 26.1816C253.786 27.002 254.904 28.4229 254.904 30.4443C254.904 31.8896 254.284 33.0615 253.044 33.96C251.804 34.8486 250.202 35.293 248.239 35.293C246.911 35.293 245.729 35.0586 244.694 34.5898C243.669 34.1113 242.863 33.4619 242.277 32.6416C241.691 31.8115 241.398 30.918 241.398 29.9609H245.412C245.451 30.7129 245.729 31.2891 246.247 31.6895C246.765 32.0898 247.458 32.29 248.327 32.29C249.138 32.29 249.748 32.1387 250.158 31.8359C250.578 31.5234 250.788 31.1182 250.788 30.6201Z" fill="#950000"/>
<g clip-path="url(#clip0)">
<path d="M30.625 18.4229H18.375V30.6728H30.625V18.4229Z" fill="black"/>
<path d="M12.25 0H0V12.25H12.25V0Z" fill="black"/>
<path d="M30.625 36.8456H18.375V49.0956H30.625V36.8456Z" fill="#950000"/>
<path d="M12.25 18.4229H0V30.6728H12.25V18.4229Z" fill="#950000"/>
<path d="M12.25 36.8456H0V49.0956H12.25V36.8456Z" fill="black"/>
<path d="M49 0H36.75V12.25H49V0Z" fill="black"/>
<path d="M30.625 0H18.375V12.25H30.625V0Z" fill="#950000"/>
<path d="M49 18.4229H36.75V30.6728H49V18.4229Z" fill="#950000"/>
<path d="M49 36.8456H36.75V49.0956H49V36.8456Z" fill="black"/>
</g>
<defs>
<clipPath id="clip0">
<rect width="49" height="49" fill="white"/>
</clipPath>
</defs>
</svg>
